# Alias OBJ Model File
# Exported from SketchUp, (c) 2000-2006 Google, Inc.
# File units = meters

mtllib Wardrobe.mtl

g Mesh1 Model

usemtl Material1
v -0.55 0.636854 3.60956e-016
vt 0.493326 0.366545
vn -0.786935 0.617036 1.39715e-016
v -0.564764 0.618025 -0.0430189
vt 0.471816 0.354581
v -0.790644 0.32995 1.80478e-016
vt 0.493326 0.171545
f 1/1/1 2/2/1 3/3/1

v -0.55 0.636854 -0.981306
vt 0.00267284 0.366545
f 2/2/1 1/1/1 4/4/1

vt 0.496694 0.364969
vn -1 -1.58932e-032 1.83916e-016
v -0.55 0.666882 -0.0562787
vt 0.468555 0.379983
vt 0.00604106 0.364969
f 1/5/2 5/6/2 4/7/2

v -0.55 1.76688 -0.0562787
vt 0.468555 0.929983
f 5/6/2 1/5/2 6/8/2

v -0.55 1.79685 5.41434e-016
vt 0.496694 0.944969
f 7/9/2 6/8/2 1/5/2

v -0.55 1.79685 -0.981306
vt 0.00604106 0.944969
f 6/8/2 7/9/2 8/10/2

v -0.55 1.89932 3.60956e-016
vt -0.496694 0.996202
vn 1 -1.74283e-031 -1.83916e-016
vt -0.496694 0.944969
vt -0.00604106 0.944969
v -0.55 1.89932 -0.981306
vt -0.00604106 0.996202
f 9/11/3 7/12/3 8/13/3 10/14/3 

vt -0.533492 0.939681
vn -3.13377e-016 1.8483e-015 1
vt -0.533492 0.990914
v -0.58 1.88915 3.60956e-016
vt -0.548492 0.985828
v -0.58 1.79685 5.41434e-016
vt -0.548492 0.939681
f 7/15/4 9/16/4 11/17/4 12/18/4 

v -0.796403 5.63993e-017 1.80478e-016
vt -1.08397 0.0305841
vn 3.06068e-016 -1.49455e-016 1
v -1.57336e-018 0 -0
vt -1.48218 0.0305841
v -1.57336e-018 1.89932 1.80478e-016
vt -1.48218 0.980244
vt -1.20718 0.980244
vt -1.20718 0.929011
vt -1.20718 0.349011
vt -1.08685 0.195559
f 13/19/5 14/20/5 15/21/5 9/22/5 7/23/5 1/24/5 3/25/5 

usemtl FrontColor
v -0.796403 -7.89591e-017 -0.981306
vt 31.3545 38.6341
vn -2.10357e-017 -1 7.21836e-017
v -1.9223e-016 -2.25597e-017 -0.981306
vt 7.56812e-015 38.6341
vt 6.19432e-017 9.40567e-050
vt 31.3545 -7.10543e-015
v -0.796403 4.51195e-017 -0.045651
vt 31.3545 1.79728
v -0.796403 0 -0.926408
vt 31.3545 36.4728
f 16/26/6 17/27/6 14/28/6 13/29/6 18/30/6 19/31/6 

usemtl Material1
vt -0.481618 0.0348515
vn -2.60983e-016 2.02956e-017 -1
vt -0.083416 0.0348515
v -0.790644 0.32995 -0.981306
vt -0.0862957 0.199826
vt -0.206618 0.353279
vt -0.206618 0.933279
vt -0.206618 0.984512
v -1.9223e-016 1.89932 -0.981306
vt -0.481618 0.984512
f 17/32/7 16/33/7 20/34/7 4/35/7 8/36/7 10/37/7 21/38/7 

vt 0.00568919 0.00978316
vn -0.999848 0.0174524 1.95718e-016
vt 0.0331379 0.00978316
v -0.791596 0.275386 -0.926408
vt 0.0331379 0.147497
v -0.791596 0.275386 -0.045651
vt 0.473516 0.147497
vt 0.473516 0.00978316
vt 0.496342 0.00978316
vt 0.496342 0.174783
vt 0.00568919 0.174783
f 16/39/8 19/40/8 22/41/8 23/42/8 18/43/8 13/44/8 3/45/8 20/46/8 

vt 0.0331379 0.147497
vn -1.9367e-016 -1.07996e-020 -1
vt 0.0331379 0.00978316
v -0.826399 0.000523572 -0.926408
vt 0.0481379 0.00978316
v -0.821592 0.275909 -0.926408
vt 0.0481379 0.147497
f 22/47/9 19/48/9 24/49/9 25/50/9 

vt 0.0331379 0.0893941
vn -0.0174524 -0.999848 5.3717e-017
vt 0.473516 0.0893941
v -0.826399 0.000523572 -0.045651
vt 0.473516 0.104394
vt 0.0331379 0.104394
f 19/51/10 18/52/10 26/53/10 24/54/10 

vt 0.473516 0.00978316
vn 1.9367e-016 1.07996e-020 1
vt 0.473516 0.147497
v -0.821592 0.275909 -0.045651
vt 0.458516 0.147497
vt 0.458516 0.00978316
f 18/55/11 23/56/11 27/57/11 26/58/11 

vt -0.47422 0.0893941
vn 0.0174524 0.999848 -4.28486e-018
vt -0.0338416 0.0893941
vt -0.0338416 0.104394
vt -0.47422 0.104394
f 23/59/12 22/60/12 25/61/12 27/62/12 

vt 0.0331379 0.00978316
vn -0.999848 0.0174524 1.93641e-016
vt 0.473516 0.00978316
f 24/63/13 26/64/13 27/42/13 25/41/13 

v -0.780726 0.342598 -0.0430189
vt 0.471816 0.179581
vt 0.00267284 0.171545
f 3/3/1 28/65/1 20/66/1

f 28/65/1 3/3/1 2/2/1

vt 0.481816 0.179581
vn 1.65545e-016 2.25379e-017 1
vt 0.481816 0.354581
v -0.580503 0.630366 -0.0430189
vt 0.471816 0.354581
v -0.796465 0.354939 -0.0430189
vt 0.471816 0.179581
f 28/67/14 2/68/14 29/69/14 30/70/14 

vt 0.471816 0.354581
vn 0.617036 0.786935 -1.19883e-016
v -0.564764 0.618025 -0.923019
vt 0.0318162 0.354581
v -0.580503 0.630366 -0.923019
vt 0.0318162 0.344581
vt 0.471816 0.344581
f 2/71/15 31/72/15 32/73/15 29/74/15 

vt 0.0318162 0.354581
f 2/2/1 4/4/1 31/75/1

v -0.780726 0.342598 -0.923019
vt 0.0318162 0.179581
f 31/75/1 4/4/1 33/76/1

f 20/66/1 33/76/1 4/4/1

f 20/66/1 28/65/1 33/76/1

vt 0.0318162 0.179581
vn -0.617036 -0.786935 2.00579e-016
vt 0.471816 0.179581
vt 0.471816 0.189581
v -0.796465 0.354939 -0.923019
vt 0.0318162 0.189581
f 33/77/16 28/78/16 30/79/16 34/80/16 

vt 0.471816 0.354581
vn -0.786935 0.617036 1.16367e-016
vt 0.0318162 0.354581
vt 0.0318162 0.179581
vt 0.471816 0.179581
f 29/81/17 32/82/17 34/83/17 30/84/17 

vt 0.0218162 0.354581
vn -1.65545e-016 -2.25379e-017 -1
vt 0.0218162 0.179581
vt 0.0318162 0.179581
vt 0.0318162 0.354581
f 31/85/18 33/86/18 34/87/18 32/88/18 

v -0.55 0.666882 -0.916279
vt 0.0385545 0.379983
f 4/7/2 35/89/2 8/10/2

f 4/7/2 5/6/2 35/89/2

vt -0.748974 -0.594649
vn 0 -1 -0
vt -0.748974 -0.164649
v -0.58 0.666882 -0.0562787
vt -0.763974 -0.164649
v -0.58 0.666882 -0.916279
vt -0.763974 -0.594649
f 35/90/19 5/91/19 36/92/19 37/93/19 

vt -0.533492 0.374695
vn 1.94289e-016 0 1
vt -0.533492 0.924695
v -0.58 1.76688 -0.0562787
vt -0.548492 0.924695
vt -0.548492 0.374695
f 5/94/20 6/95/20 38/96/20 36/97/20 

vt -0.761602 0.911311
vn 0 1 -0
v -0.55 1.76688 -0.916279
vt -0.761602 0.481311
v -0.58 1.76688 -0.916279
vt -0.746602 0.481311
vt -0.746602 0.911311
f 6/98/21 39/99/21 40/100/21 38/101/21 

vt 0.0385545 0.929983
f 6/8/2 8/10/2 39/102/2

f 39/102/2 8/10/2 35/89/2

vt -0.762659 0.918326
vn -1.94289e-016 0 -1
vt -0.762659 0.368326
vt -0.747659 0.368326
vt -0.747659 0.918326
f 39/103/22 35/104/22 37/105/22 40/106/22 

vt -1.96214 0.927014
vn -1 0 1.94289e-016
vt -1.53214 0.927014
vt -1.53214 0.377014
vt -1.96214 0.377014
f 38/107/23 40/108/23 37/109/23 36/110/23 

vt 0.0152607 0.993955
vn 0 0 -1
vt 0.0152607 0.942722
v -0.58 1.79685 -0.981306
vt 0.0302607 0.942722
v -0.58 1.88915 -0.981306
vt 0.0302607 0.988869
f 10/111/24 8/112/24 41/113/24 42/114/24 

vt -0.748974 -0.627162
vn 2.51201e-031 -1 3.67832e-016
vt -0.748974 -0.136509
vt -0.763974 -0.136509
vt -0.763974 -0.627162
f 8/115/25 7/116/25 12/117/25 41/118/25 

vt 0.496694 0.991115
vt 0.00604106 0.991115
f 11/119/23 42/120/23 41/10/23 12/9/23 

vt 0.499156 1.97903
vn -0.321136 0.947033 -6.37577e-016
vt 0.499156 1.99487
vt 0.00850368 1.99487
vt 0.00850368 1.97903
f 11/121/26 9/122/26 10/123/26 42/124/26 

vt -0.479328 1.49076
vn 6.56283e-016 1 -1.1035e-015
vt -0.204328 1.49076
vt -0.204328 1.98141
vt -0.479328 1.98141
f 9/125/27 15/126/27 21/127/27 10/128/27 

vt 0.0393083 0.92588
vn 1 5.47398e-032 -1.94289e-016
v 0 1.79169 -0.117729
vt 0.0649689 0.894793
vt 0.253198 0.92588
f 15/129/28 43/130/28 21/131/28

vt 0.0393083 0.377314
f 43/130/28 15/129/28 14/132/28

v 0 0.92516 -0.107064
vt 0.0626444 0.644521
f 43/130/28 14/132/28 44/133/28

v 0 0.11516 -0.107064
vt 0.0626444 0.410575
f 44/133/28 14/132/28 45/134/28

vt 0.253198 0.377314
f 17/135/28 45/134/28 14/132/28

v -1.57374e-016 0.11516 -0.917064
vt 0.239195 0.410575
f 45/134/28 17/135/28 46/136/28

v -1.57374e-016 0.92516 -0.917064
vt 0.239195 0.644521
f 46/136/28 17/135/28 47/137/28

f 21/131/28 47/137/28 17/135/28

v -1.51545e-016 1.79169 -0.897729
vt 0.234981 0.894793
f 21/131/28 48/138/28 47/137/28

f 21/131/28 43/130/28 48/138/28

vt 0.0393083 0.636598
vn 2.37556e-017 -1 -4.61545e-033
vt 0.0393083 0.411317
v -0.05 1.79169 -0.117729
vt 0.0502065 0.411317
v -0.05 1.79169 -0.897729
vt 0.0502065 0.636598
f 48/139/29 43/140/29 49/141/29 50/142/29 

vt 0.0393083 0.894793
vn -1.94289e-016 -4.61545e-033 -1
v 1.85294e-017 1.01169 -0.117729
vt 0.0393083 0.669512
v -0.05 1.01169 -0.117729
vt 0.0502065 0.669512
vt 0.0502065 0.894793
f 43/143/30 51/144/30 52/145/30 49/146/30 

vt 0.0649689 0.669512
f 43/130/28 44/133/28 51/147/28

f 47/137/28 51/147/28 44/133/28

v -1.33016e-016 1.01169 -0.897729
vt 0.234981 0.669512
f 51/147/28 47/137/28 53/148/28

f 53/148/28 47/137/28 48/138/28

vt 0.0393083 0.669512
vn 1.94289e-016 4.61545e-033 1
vt 0.0393083 0.894793
vt 0.0284101 0.894793
v -0.05 1.01169 -0.897729
vt 0.0284101 0.669512
f 53/149/31 48/150/31 50/151/31 54/152/31 

vn 1 2.37556e-017 -1.94289e-016
f 50/138/32 49/130/32 52/147/32 54/148/32 

vt 0.0393083 0.411317
vn -2.37556e-017 1 4.61545e-033
vt 0.0393083 0.636598
vt 0.0284101 0.636598
vt 0.0284101 0.411317
f 51/153/33 53/154/33 54/155/33 52/156/33 

vt 0.0393083 0.642182
vn 1.24113e-032 -1 -2.41138e-048
vt 0.0393083 0.408236
v -0.05 0.92516 -0.107064
vt 0.0502065 0.408236
v -0.05 0.92516 -0.917064
vt 0.0502065 0.642182
f 47/157/34 44/158/34 55/159/34 56/160/34 

vt 0.0393083 0.644521
vn -1.94289e-016 0 -1
vt 0.0393083 0.410575
v -0.05 0.11516 -0.107064
vt 0.0502065 0.410575
vt 0.0502065 0.644521
f 44/161/35 45/162/35 57/163/35 55/164/35 

vn -1.24113e-032 1 2.41138e-048
vt 0.0393083 0.642182
v -0.05 0.11516 -0.917064
vt 0.0284101 0.642182
vt 0.0284101 0.408236
f 45/158/36 46/165/36 58/166/36 57/167/36 

vt 0.0393083 0.410575
vn 1.94289e-016 4.80615e-048 1
vt 0.0393083 0.644521
vt 0.0284101 0.644521
vt 0.0284101 0.410575
f 46/168/37 47/169/37 56/170/37 58/171/37 

vn 1 1.24113e-032 -1.94289e-016
f 58/136/38 56/137/38 55/133/38 57/134/38 

